<svg width="91" height="82" viewBox="0 0 91 82" fill="none" xmlns="http://www.w3.org/2000/svg">
<path d="M39.6328 9.62886L31.2539 7.63666L32.4258 0.722656H64.3594L65.5312 7.63666L57.2109 9.62886V71.2695H72.7969L77.6602 59.9609L86.684 61.25L85.219 80H32.4258L31.2539 73.0859L39.6328 71.0938V9.62886Z" fill="#424242"/>
<path d="M11.293 80.7629L11.6807 79.1067L0.134766 61.3083L2.05116 57.6731L19.8344 63.6399L20.8968 62.5456L22.1883 63.9769L18.5887 70.805L17.0057 69.9265L17.6265 67.828L14.1059 66.6124L10.8051 72.8737L13.1161 76.3837L14.419 74.8333L15.7105 76.2646L12.876 81.6414L11.293 80.7629ZM9.36186 70.7105L11.9268 65.8451L4.77346 63.3633L4.65686 63.5845L9.36186 70.7105Z" fill="#DC2F3C"/>
<path d="M20.5955 48.8846C22.5545 48.2058 24.0477 47.8898 25.0749 47.9367C26.1022 47.9835 27.0398 48.4802 27.8878 49.4268C28.9096 50.5672 29.2818 51.9353 29.0045 53.5308C28.727 55.1108 27.8265 56.7775 26.3029 58.531C25.5719 59.3723 24.8089 60.0928 24.014 60.6925C23.2328 61.2921 22.5022 61.739 21.8222 62.0331L19.0088 59.1253L20.5323 56.8993L23.1075 58.4029C23.4093 58.2132 23.7177 57.9843 24.0327 57.7163C24.3408 57.4406 24.6348 57.1415 24.915 56.8192C25.2292 56.4575 25.5091 56.096 25.7544 55.7348C25.9929 55.3659 26.2003 55.0011 26.3767 54.6405C26.2929 54.4849 26.1848 54.3256 26.0526 54.1625C25.9203 53.9839 25.7881 53.8209 25.6561 53.6734C25.2043 53.1692 24.6407 52.9274 23.9655 52.9481C23.2971 52.961 22.1447 53.2314 20.5084 53.7594C18.6799 54.3826 17.2763 54.69 16.2975 54.6819C15.3187 54.6581 14.4227 54.1923 13.6094 53.2846C12.678 52.2449 12.3478 50.9625 12.6187 49.4373C12.8896 47.8964 13.7834 46.2532 15.3002 44.5076C15.8399 43.8864 16.4763 43.288 17.2094 42.7122C17.9493 42.1285 18.7278 41.6344 19.5449 41.2299L22.3584 44.1611L20.8349 46.3871L18.1871 44.8489C17.9128 45.0385 17.6457 45.2592 17.3857 45.5111C17.1256 45.7474 16.8931 45.9835 16.6881 46.2194C16.4285 46.5182 16.1761 46.856 15.9308 47.2328C15.6855 47.594 15.4882 47.9392 15.3391 48.2684C15.4161 48.4318 15.5139 48.5951 15.6323 48.7583C15.7507 48.9214 15.8759 49.0767 16.008 49.2241C16.3347 49.5887 16.7839 49.7571 17.3558 49.7294C17.9276 49.7016 19.0075 49.42 20.5955 48.8846Z" fill="#DC2F3C"/>
<path d="M42.2732 41.3112L44.3814 40.4555L45.1372 42.1799L41.0684 45.5133L38.9919 43.966C38.8717 44.9606 38.539 45.9345 37.9937 46.8877C37.4512 47.8261 36.7267 48.6197 35.8203 49.2683C34.5664 50.1653 33.4166 50.5656 32.3708 50.4692C31.3192 50.3641 30.434 49.7626 29.7151 48.6645C28.631 47.0086 28.4999 45.2788 29.3218 43.475C30.1521 41.6652 31.9143 39.7965 34.6083 37.8691L33.8123 36.6533C33.0592 35.503 32.3109 34.797 31.5674 34.5355C30.8267 34.2592 30.0243 34.4302 29.1602 35.0484C28.8044 35.303 28.4841 35.5642 28.1991 35.832C27.917 36.0851 27.6786 36.3196 27.4841 36.5355L28.5361 39.8524L26.3157 41.2491L23.7224 37.2881C24.3056 36.5638 25.0034 35.815 25.8158 35.0418C26.6366 34.2625 27.4707 33.5698 28.3178 32.9637C30.2833 31.5575 32.0015 30.9232 33.4725 31.061C34.9462 31.1839 36.2166 32.0602 37.2835 33.6899L42.2732 41.3112ZM35.8065 39.6992C34.9593 40.3053 34.2129 40.9418 33.5671 41.6086C32.9299 42.2693 32.4821 42.8584 32.2238 43.3759C32.2648 43.6665 32.3556 44.0047 32.4961 44.3904C32.631 44.7674 32.824 45.1476 33.075 45.5311C33.5087 46.1934 33.9738 46.6093 34.4703 46.7787C34.9612 46.9394 35.4523 46.844 35.9436 46.4925C36.4773 46.1106 36.9026 45.5632 37.2195 44.8501C37.5392 44.1223 37.7301 43.4163 37.7921 42.7321L35.8065 39.6992Z" fill="#DC2F3C"/>
<path d="M44.9086 40.7352L46.8024 39.4945L41.9788 28.2853L39.665 28.55L39.2305 26.7512L44.023 24.6721L45.8521 26.6344C46.4159 25.4721 47.067 24.5657 47.8056 23.915C48.5401 23.2547 49.3977 22.7491 50.3785 22.3982C52.0458 21.8017 53.495 21.7635 54.7262 22.2836C55.9573 22.8038 56.9167 23.8628 57.6043 25.4607L61.3965 34.2732L63.7102 34.0084L64.1448 35.8073L56.2593 38.6286L55.2363 37.0402L57.1301 35.7996L53.4305 27.2024C52.957 26.1021 52.4359 25.3776 51.8671 25.029C51.304 24.6674 50.6547 24.6181 49.9191 24.8813C49.3993 25.0673 48.8772 25.4583 48.3528 26.0545C47.8382 26.6471 47.3724 27.4321 46.9555 28.4094L51.0688 37.9682L53.3826 37.7035L53.8172 39.5023L45.9317 42.3236L44.9086 40.7352Z" fill="#DC2F3C"/>
<path d="M69.7594 19.7673L70.5379 21.532L66.4713 22.4861L68.996 32.1944C69.2137 33.0311 69.5173 33.6663 69.9071 34.0998C70.3046 34.5222 70.907 34.688 71.7145 34.5975C72.0147 34.5638 72.347 34.4695 72.7115 34.3145C73.0735 34.1494 73.4146 33.9659 73.735 33.7639L74.1833 35.4878C73.7056 35.8631 73.1267 36.177 72.4466 36.4296C71.7666 36.6823 71.0642 36.8492 70.3396 36.9305C68.6833 37.1162 67.4063 36.8963 66.5085 36.2707C65.6184 35.6339 64.9754 34.5543 64.5795 33.0321L61.9683 22.9911L59.4977 22.7701L59.3403 20.9358L61.3744 20.7076L61.3557 16.1498L64.8038 16.0743L65.8774 20.2026L69.7594 19.7673Z" fill="#DC2F3C"/>
<path d="M79.802 29.2482L79.9208 30.2726C80.1129 31.9282 80.6599 33.2279 81.5609 34.1719C82.4719 35.1063 83.7419 35.6392 85.3719 35.7706C86.0779 35.8275 86.8859 35.7901 87.7969 35.6584C88.7069 35.5268 89.4849 35.3588 90.1299 35.1545L90.3389 36.955C89.6249 37.2767 88.6869 37.524 87.5239 37.6968C86.3609 37.8697 85.1619 37.9063 83.9259 37.8067C81.4659 37.6084 79.5035 36.8763 78.0401 35.6103C76.5768 34.3443 75.7179 32.6145 75.4636 30.4209L75.3142 29.1326C74.9687 26.1526 75.447 23.8898 76.749 22.3444C78.051 20.7989 80.0309 20.1333 82.6889 20.3475C85.0569 20.5382 86.8139 21.2385 87.9629 22.4484C89.1099 23.6479 89.8309 25.5255 90.1279 28.0813L90.3619 30.0991L79.802 29.2482ZM79.8028 22.8672C79.7063 23.454 79.6349 24.1248 79.5887 24.8796C79.5529 25.6353 79.5556 26.3684 79.5968 27.079L85.5929 27.5622C85.3829 25.7514 85.0289 24.4723 84.5309 23.7249C84.0319 22.9671 83.2839 22.548 82.2869 22.4677C81.8509 22.4326 81.4159 22.4488 80.9809 22.5163C80.5569 22.5846 80.1639 22.7016 79.8028 22.8672Z" fill="#DC2F3C"/>
</svg>
