<svg width="268" height="52" viewBox="0 0 268 52" fill="none" xmlns="http://www.w3.org/2000/svg">
<path d="M67 46.2L69 45.64L77.66 21.5H82.92L91.38 45.64L93.36 46.2L92.96 48.56H83.08L82.68 46.2L85.32 45.64L83.68 40.84H74.62L72.94 45.64L75.58 46.2L75.18 48.56H67.4L67 46.2ZM75.64 37.86H82.68L79.36 28.1H79.04L75.64 37.86ZM104.66 35.28C107.127 36.6133 108.833 37.8 109.78 38.84C110.727 39.88 111.2 41.2134 111.2 42.84C111.2 44.8 110.38 46.3201 108.74 47.4C107.113 48.4667 104.813 49 101.84 49C100.413 49 99.06 48.8667 97.78 48.6C96.5133 48.3467 95.4267 48.0133 94.52 47.6001L94.32 42.4L97.7 42L98.88 45.78C99.3334 45.9133 99.8267 46.02 100.36 46.1C100.893 46.1667 101.433 46.2 101.98 46.2C102.593 46.2 103.173 46.1667 103.72 46.1C104.267 46.02 104.78 45.9133 105.26 45.78C105.313 45.5667 105.347 45.3267 105.36 45.06C105.387 44.78 105.4 44.5134 105.4 44.26C105.4 43.3933 105.067 42.64 104.4 42C103.747 41.36 102.407 40.4667 100.38 39.32C98.0867 38.0667 96.4733 36.96 95.54 36C94.62 35.0267 94.16 33.76 94.16 32.2C94.16 30.4134 94.9467 29.0067 96.52 27.98C98.1067 26.94 100.38 26.42 103.34 26.42C104.393 26.42 105.52 26.5334 106.72 26.76C107.933 26.9866 109.107 27.3267 110.24 27.78L110.42 33L107.04 33.4L105.82 29.52C105.393 29.4133 104.947 29.34 104.48 29.3C104.027 29.2467 103.6 29.22 103.2 29.22C102.693 29.22 102.16 29.26 101.6 29.34C101.053 29.4067 100.567 29.5066 100.14 29.64C100.073 29.8534 100.027 30.0867 100 30.34C99.9734 30.5933 99.96 30.8467 99.96 31.1C99.96 31.7267 100.247 32.3067 100.82 32.84C101.393 33.3733 102.673 34.1867 104.66 35.28ZM132.1 45.52L134.96 46.2L134.56 48.56L127.86 49L126.72 45.84C125.893 46.7867 124.853 47.5534 123.6 48.14C122.36 48.7133 121.027 49 119.6 49C117.627 49 116.113 48.56 115.06 47.68C114.007 46.7867 113.48 45.5 113.48 43.82C113.48 41.2867 114.553 39.3867 116.7 38.12C118.86 36.8534 122.06 36.22 126.3 36.22V34.36C126.3 32.6 125.993 31.3067 125.38 30.48C124.78 29.64 123.8 29.22 122.44 29.22C121.88 29.22 121.353 29.2534 120.86 29.32C120.38 29.3733 119.96 29.44 119.6 29.52L118.4 33.76L115.04 33.56V27.5C116.173 27.18 117.447 26.92 118.86 26.72C120.287 26.52 121.667 26.42 123 26.42C126.093 26.42 128.38 27.04 129.86 28.28C131.353 29.5066 132.1 31.3667 132.1 33.86V45.52ZM126.3 39.02C124.967 39.02 123.72 39.1267 122.56 39.34C121.413 39.5533 120.52 39.8334 119.88 40.18C119.72 40.5134 119.58 40.9333 119.46 41.44C119.34 41.9334 119.28 42.4734 119.28 43.06C119.28 44.0733 119.487 44.8533 119.9 45.4C120.313 45.9333 120.907 46.2 121.68 46.2C122.52 46.2 123.36 45.9467 124.2 45.44C125.053 44.92 125.753 44.3267 126.3 43.66V39.02ZM137.2 46.2L140.06 45.52V29.9L137.2 29.22L137.6 26.86L144.3 26.42L145.46 29.58C146.714 28.42 147.94 27.6066 149.14 27.14C150.34 26.66 151.607 26.42 152.94 26.42C155.207 26.42 156.933 27 158.12 28.16C159.307 29.32 159.9 31.0134 159.9 33.24V45.52L162.76 46.2L162.36 48.56H151.64L151.24 46.2L154.1 45.52V33.54C154.1 32.0067 153.854 30.9067 153.36 30.24C152.88 29.56 152.14 29.22 151.14 29.22C150.434 29.22 149.62 29.4666 148.7 29.96C147.794 30.4534 146.847 31.2 145.86 32.2V45.52L148.72 46.2L148.32 48.56H137.6L137.2 46.2ZM177.66 26.86L178.06 29.24L172.66 29.88V42.72C172.66 43.8267 172.833 44.6867 173.18 45.3C173.54 45.9 174.24 46.2 175.28 46.2C175.667 46.2 176.113 46.1267 176.62 45.98C177.126 45.82 177.613 45.6334 178.08 45.42V47.7C177.36 48.1134 176.533 48.4334 175.6 48.66C174.667 48.8867 173.734 49 172.8 49C170.666 49 169.14 48.5333 168.22 47.6001C167.313 46.6533 166.86 45.1734 166.86 43.16V29.88L163.84 29.24L164.24 26.86H166.86L168.32 21L172.66 21.4V26.86H177.66ZM186.2 38.3V39.62C186.2 41.7534 186.713 43.3867 187.74 44.52C188.78 45.6401 190.347 46.2 192.44 46.2C193.347 46.2 194.4 46.0667 195.6 45.8C196.8 45.5333 197.833 45.2334 198.7 44.9V47.22C197.727 47.7134 196.473 48.1334 194.94 48.48C193.407 48.8267 191.847 49 190.26 49C187.1 49 184.667 48.2534 182.96 46.76C181.253 45.2667 180.4 43.1067 180.4 40.28V38.62C180.4 34.78 181.36 31.7867 183.28 29.64C185.2 27.4933 187.867 26.42 191.28 26.42C194.32 26.42 196.493 27.1467 197.8 28.6C199.107 30.04 199.76 32.4067 199.76 35.7V38.3H186.2ZM187.16 30C186.947 30.7733 186.753 31.6534 186.58 32.64C186.42 33.6267 186.313 34.58 186.26 35.5H193.96C193.96 33.1667 193.693 31.54 193.16 30.62C192.626 29.6867 191.72 29.22 190.44 29.22C189.88 29.22 189.313 29.2867 188.74 29.42C188.18 29.5533 187.653 29.7467 187.16 30Z" fill="#DC2F3C"/>
<path d="M208.692 28.6614L206.404 28.1174L206.724 26.2294H215.444L215.764 28.1174L213.492 28.6614V45.4934H217.748L219.076 42.4054L221.54 42.7574L221.14 47.8774H206.724L206.404 45.9894L208.692 45.4454V28.6614ZM238.388 45.4454L240.676 45.9894L240.356 47.8774L234.996 48.2294L234.084 45.7014C233.423 46.4588 232.59 47.0721 231.588 47.5414C230.596 48.0001 229.529 48.2294 228.388 48.2294C226.81 48.2294 225.599 47.8774 224.756 47.1734C223.913 46.4588 223.492 45.4294 223.492 44.0854C223.492 42.0588 224.351 40.5387 226.068 39.5254C227.796 38.512 230.356 38.0054 233.748 38.0054V36.5174C233.748 35.1094 233.503 34.0747 233.012 33.4134C232.532 32.7414 231.748 32.4054 230.66 32.4054C230.212 32.4054 229.791 32.4321 229.396 32.4854C229.012 32.528 228.676 32.5814 228.388 32.6454L227.428 36.0374L224.74 35.8774V31.0294C225.647 30.7734 226.666 30.5654 227.796 30.4054C228.938 30.2454 230.041 30.1654 231.108 30.1654C233.583 30.1654 235.412 30.6614 236.596 31.6534C237.791 32.6347 238.388 34.1228 238.388 36.1174V45.4454ZM233.748 40.2454C232.681 40.2454 231.684 40.3307 230.756 40.5014C229.839 40.6721 229.124 40.896 228.612 41.1734C228.484 41.4401 228.372 41.7761 228.276 42.1814C228.18 42.5761 228.132 43.0081 228.132 43.4774C228.132 44.2881 228.297 44.912 228.628 45.3494C228.959 45.7761 229.433 45.9894 230.052 45.9894C230.724 45.9894 231.396 45.7867 232.068 45.3814C232.751 44.9654 233.311 44.4908 233.748 43.9574V40.2454ZM248.372 32.4054L248.596 32.5014C249.279 31.7441 250.047 31.168 250.9 30.7734C251.754 30.3681 252.66 30.1654 253.62 30.1654C255.7 30.1654 257.215 30.7467 258.164 31.9094C259.113 33.0614 259.588 34.832 259.588 37.2214V38.7254C259.588 41.6374 258.831 43.9521 257.316 45.6694C255.812 47.3761 253.78 48.2294 251.22 48.2294C250.089 48.2294 248.83 48.0961 247.444 47.8294C246.057 47.5628 244.82 47.2427 243.732 46.8694V25.6694L241.444 25.1254L241.764 23.2374L248.372 22.8854V32.4054ZM254.948 37.6054C254.948 35.8134 254.735 34.5014 254.308 33.6694C253.881 32.8267 253.161 32.4054 252.148 32.4054C251.519 32.4054 250.868 32.6294 250.196 33.0774C249.535 33.5147 248.927 34.0854 248.372 34.7894V45.5574C248.746 45.6641 249.226 45.7654 249.812 45.8614C250.399 45.9468 250.975 45.9894 251.54 45.9894C251.988 45.9894 252.457 45.9254 252.948 45.7974C253.438 45.6694 253.876 45.5094 254.26 45.3174C254.462 44.5387 254.628 43.664 254.756 42.6934C254.884 41.7121 254.948 40.6508 254.948 39.5094V37.6054ZM262.276 46.2934C262.276 45.8561 262.324 45.4401 262.42 45.0454C262.527 44.6401 262.665 44.2881 262.836 43.9894C263.018 43.6801 263.225 43.4401 263.46 43.2694C263.695 43.0881 263.945 42.9974 264.212 42.9974C264.671 42.9974 265.098 43.0507 265.492 43.1574C265.897 43.2534 266.244 43.3921 266.532 43.5734C266.831 43.7547 267.065 43.968 267.236 44.2134C267.406 44.4481 267.492 44.6988 267.492 44.9654C267.492 45.4027 267.439 45.8187 267.332 46.2134C267.236 46.5974 267.097 46.9441 266.916 47.2534C266.746 47.552 266.537 47.7867 266.292 47.9574C266.058 48.1387 265.807 48.2294 265.54 48.2294C265.081 48.2294 264.655 48.1761 264.26 48.0694C263.865 47.9734 263.519 47.8401 263.22 47.6694C262.932 47.4881 262.703 47.2801 262.532 47.0454C262.362 46.8107 262.276 46.5601 262.276 46.2934Z" fill="#424242"/>
<path d="M78.491 15C78.161 15 77.927 14.784 77.789 14.352L74.459 3.804C74.387 3.576 74.42 3.348 74.558 3.12C74.702 2.892 74.909 2.778 75.179 2.778C75.323 2.778 75.461 2.826 75.593 2.922C75.725 3.012 75.821 3.156 75.881 3.354L78.815 12.696H78.419L81.209 3.444C81.275 3.228 81.386 3.066 81.542 2.958C81.704 2.85 81.869 2.796 82.037 2.796C82.217 2.796 82.391 2.85 82.559 2.958C82.727 3.066 82.841 3.228 82.901 3.444L85.691 12.696H85.295L88.229 3.354C88.295 3.156 88.388 3.015 88.508 2.931C88.634 2.841 88.769 2.796 88.913 2.796C89.177 2.796 89.387 2.898 89.543 3.102C89.699 3.306 89.735 3.54 89.651 3.804L86.321 14.352C86.177 14.784 85.913 15 85.529 15H85.493C85.091 15 84.827 14.784 84.701 14.352L81.803 4.974H82.199L79.283 14.352C79.223 14.568 79.133 14.73 79.013 14.838C78.899 14.946 78.725 15 78.491 15ZM90.9055 11.058V11.49C90.9055 12.264 91.0465 12.792 91.3285 13.074C91.6105 13.35 92.1415 13.488 92.9215 13.488H94.3975C95.0095 13.488 95.4625 13.431 95.7565 13.317C96.0505 13.203 96.2455 13.002 96.3415 12.714C96.4075 12.486 96.4975 12.312 96.6115 12.192C96.7315 12.072 96.9115 12.012 97.1515 12.012C97.4035 12.012 97.5955 12.078 97.7275 12.21C97.8595 12.342 97.9015 12.534 97.8535 12.786C97.7215 13.53 97.3675 14.085 96.7915 14.451C96.2155 14.817 95.4175 15 94.3975 15H92.9215C91.7275 15 90.8395 14.712 90.2575 14.136C89.6815 13.56 89.3935 12.678 89.3935 11.49V9.402C89.3935 8.184 89.6815 7.29 90.2575 6.72C90.8395 6.144 91.7275 5.862 92.9215 5.874H94.3975C95.5975 5.874 96.4855 6.162 97.0615 6.738C97.6375 7.308 97.9255 8.196 97.9255 9.402V10.302C97.9255 10.806 97.6735 11.058 97.1695 11.058H90.9055ZM92.9215 7.386C92.1415 7.374 91.6105 7.509 91.3285 7.791C91.0465 8.073 90.9055 8.61 90.9055 9.402V9.546H96.4135V9.402C96.4135 8.616 96.2725 8.085 95.9905 7.809C95.7145 7.527 95.1835 7.386 94.3975 7.386H92.9215ZM101.09 15C100.586 15 100.334 14.748 100.334 14.244V3.084C100.334 2.58 100.586 2.328 101.09 2.328C101.594 2.328 101.846 2.58 101.846 3.084V6.837C102.158 6.519 102.548 6.279 103.016 6.117C103.484 5.955 104.03 5.874 104.654 5.874H105.338C106.538 5.874 107.426 6.162 108.002 6.738C108.578 7.314 108.866 8.202 108.866 9.402V11.472C108.866 12.666 108.578 13.554 108.002 14.136C107.426 14.712 106.538 15 105.338 15H104.654C104.03 15 103.484 14.919 103.016 14.757C102.548 14.595 102.158 14.358 101.846 14.046V14.244C101.846 14.748 101.594 15 101.09 15ZM104.654 13.488H105.338C106.124 13.488 106.655 13.347 106.931 13.065C107.213 12.777 107.354 12.246 107.354 11.472V9.402C107.354 8.616 107.21 8.085 106.922 7.809C106.64 7.527 106.112 7.386 105.338 7.386H104.654C103.862 7.386 103.196 7.488 102.656 7.692C102.116 7.89 101.846 8.202 101.846 8.628V12.246C101.846 12.666 102.116 12.978 102.656 13.182C103.196 13.386 103.862 13.488 104.654 13.488ZM116.798 15C116.294 15 116.042 14.748 116.042 14.244V3.552C116.042 3.048 116.294 2.796 116.798 2.796H121.136C122.702 2.796 123.854 3.168 124.592 3.912C125.336 4.65 125.708 5.802 125.708 7.368V10.428C125.708 11.994 125.339 13.149 124.601 13.893C123.869 14.631 122.714 15 121.136 15H116.798ZM117.554 13.488H121.136C121.904 13.488 122.51 13.395 122.954 13.209C123.404 13.017 123.722 12.699 123.908 12.255C124.1 11.805 124.196 11.196 124.196 10.428V7.368C124.196 6.606 124.1 6.003 123.908 5.559C123.722 5.109 123.404 4.788 122.954 4.596C122.51 4.404 121.904 4.308 121.136 4.308H117.554V13.488ZM129.194 11.058V11.49C129.194 12.264 129.335 12.792 129.617 13.074C129.899 13.35 130.43 13.488 131.21 13.488H132.686C133.298 13.488 133.751 13.431 134.045 13.317C134.339 13.203 134.534 13.002 134.63 12.714C134.696 12.486 134.786 12.312 134.9 12.192C135.02 12.072 135.2 12.012 135.44 12.012C135.692 12.012 135.884 12.078 136.016 12.21C136.148 12.342 136.19 12.534 136.142 12.786C136.01 13.53 135.656 14.085 135.08 14.451C134.504 14.817 133.706 15 132.686 15H131.21C130.016 15 129.128 14.712 128.546 14.136C127.97 13.56 127.682 12.678 127.682 11.49V9.402C127.682 8.184 127.97 7.29 128.546 6.72C129.128 6.144 130.016 5.862 131.21 5.874H132.686C133.886 5.874 134.774 6.162 135.35 6.738C135.926 7.308 136.214 8.196 136.214 9.402V10.302C136.214 10.806 135.962 11.058 135.458 11.058H129.194ZM131.21 7.386C130.43 7.374 129.899 7.509 129.617 7.791C129.335 8.073 129.194 8.61 129.194 9.402V9.546H134.702V9.402C134.702 8.616 134.561 8.085 134.279 7.809C134.003 7.527 133.472 7.386 132.686 7.386H131.21ZM140.764 15C140.002 15 139.399 14.844 138.955 14.532C138.511 14.214 138.226 13.74 138.1 13.11C138.058 12.858 138.106 12.66 138.244 12.516C138.388 12.372 138.586 12.3 138.838 12.3C139.084 12.3 139.261 12.363 139.369 12.489C139.483 12.609 139.576 12.792 139.648 13.038C139.72 13.218 139.84 13.338 140.008 13.398C140.182 13.458 140.434 13.488 140.764 13.488H143.716C144.184 13.488 144.499 13.413 144.661 13.263C144.823 13.107 144.904 12.786 144.904 12.3C144.904 11.82 144.823 11.502 144.661 11.346C144.499 11.19 144.184 11.112 143.716 11.112H140.818C139.954 11.112 139.303 10.893 138.865 10.455C138.427 10.017 138.208 9.366 138.208 8.502C138.208 7.62 138.421 6.963 138.847 6.531C139.279 6.093 139.936 5.874 140.818 5.874H143.626C145.036 5.874 145.87 6.468 146.128 7.656C146.176 7.908 146.128 8.103 145.984 8.241C145.84 8.379 145.642 8.448 145.39 8.448C145.156 8.448 144.982 8.388 144.868 8.268C144.754 8.142 144.664 7.968 144.598 7.746C144.526 7.602 144.415 7.506 144.265 7.458C144.121 7.41 143.908 7.386 143.626 7.386H140.818C140.362 7.386 140.065 7.455 139.927 7.593C139.789 7.731 139.72 8.034 139.72 8.502C139.72 8.934 139.792 9.225 139.936 9.375C140.086 9.525 140.38 9.6 140.818 9.6H143.716C144.616 9.6 145.291 9.825 145.741 10.275C146.191 10.725 146.416 11.4 146.416 12.3C146.416 13.206 146.191 13.884 145.741 14.334C145.291 14.778 144.616 15 143.716 15H140.764ZM149.23 4.398C148.66 4.398 148.375 4.11 148.375 3.534V3.003C148.375 2.439 148.66 2.157 149.23 2.157H149.752C150.298 2.157 150.571 2.439 150.571 3.003V3.534C150.571 4.11 150.298 4.398 149.752 4.398H149.23ZM149.482 15C148.978 15 148.726 14.748 148.726 14.244V6.63C148.726 6.126 148.978 5.874 149.482 5.874C149.986 5.874 150.238 6.126 150.238 6.63V14.244C150.238 14.748 149.986 15 149.482 15ZM155.242 18.6C154.516 18.6 153.943 18.453 153.523 18.159C153.109 17.865 152.842 17.418 152.722 16.818C152.68 16.566 152.725 16.368 152.857 16.224C152.989 16.08 153.19 16.008 153.46 16.008C153.688 16.008 153.853 16.068 153.955 16.188C154.063 16.314 154.156 16.5 154.234 16.746C154.306 16.878 154.417 16.968 154.567 17.016C154.723 17.064 154.948 17.088 155.242 17.088H158.59C159.04 17.088 159.331 17.016 159.463 16.872C159.601 16.734 159.67 16.446 159.67 16.008V13.911C159.346 14.265 158.944 14.535 158.464 14.721C157.99 14.907 157.456 15 156.862 15H156.178C154.984 15 154.096 14.712 153.514 14.136C152.938 13.56 152.65 12.678 152.65 11.49V9.402C152.65 8.196 152.935 7.308 153.505 6.738C154.081 6.162 154.972 5.874 156.178 5.874H157.654C158.08 5.874 158.461 5.937 158.797 6.063C159.139 6.189 159.43 6.381 159.67 6.639V6.63C159.67 6.126 159.922 5.874 160.426 5.874C160.93 5.874 161.182 6.126 161.182 6.63V16.008C161.182 16.89 160.969 17.541 160.543 17.961C160.123 18.387 159.472 18.6 158.59 18.6H155.242ZM156.178 13.488H156.862C157.654 13.488 158.32 13.389 158.86 13.191C159.4 12.993 159.67 12.678 159.67 12.246V8.646C159.67 8.16 159.493 7.83 159.139 7.656C158.791 7.476 158.296 7.386 157.654 7.386H156.178C155.404 7.386 154.873 7.524 154.585 7.8C154.303 8.076 154.162 8.61 154.162 9.402V11.49C154.162 12.252 154.303 12.777 154.585 13.065C154.867 13.347 155.398 13.488 156.178 13.488ZM164.61 15C164.106 15 163.854 14.748 163.854 14.244V6.63C163.854 6.126 164.106 5.874 164.61 5.874C165.114 5.874 165.366 6.126 165.366 6.63V6.927C166.002 6.225 166.938 5.874 168.174 5.874H168.678C169.878 5.874 170.766 6.162 171.342 6.738C171.918 7.314 172.206 8.202 172.206 9.402V14.244C172.206 14.748 171.954 15 171.45 15C170.946 15 170.694 14.748 170.694 14.244V9.402C170.694 8.616 170.55 8.085 170.262 7.809C169.98 7.527 169.452 7.386 168.678 7.386H168.174C167.454 7.386 166.827 7.47 166.293 7.638C165.759 7.8 165.45 8.058 165.366 8.412V14.244C165.366 14.748 165.114 15 164.61 15ZM183.286 15C183.034 15 182.845 14.937 182.719 14.811C182.593 14.685 182.53 14.496 182.53 14.244V4.326H179.038C178.786 4.326 178.597 4.263 178.471 4.137C178.345 4.011 178.282 3.822 178.282 3.57C178.282 3.318 178.345 3.129 178.471 3.003C178.597 2.877 178.786 2.814 179.038 2.814H187.534C187.786 2.814 187.975 2.877 188.101 3.003C188.227 3.129 188.29 3.318 188.29 3.57C188.29 3.822 188.227 4.011 188.101 4.137C187.975 4.263 187.786 4.326 187.534 4.326H184.042V14.244C184.042 14.484 183.976 14.67 183.844 14.802C183.718 14.934 183.532 15 183.286 15ZM188.882 11.058V11.49C188.882 12.264 189.023 12.792 189.305 13.074C189.587 13.35 190.118 13.488 190.898 13.488H192.374C192.986 13.488 193.439 13.431 193.733 13.317C194.027 13.203 194.222 13.002 194.318 12.714C194.384 12.486 194.474 12.312 194.588 12.192C194.708 12.072 194.888 12.012 195.128 12.012C195.38 12.012 195.572 12.078 195.704 12.21C195.836 12.342 195.878 12.534 195.83 12.786C195.698 13.53 195.344 14.085 194.768 14.451C194.192 14.817 193.394 15 192.374 15H190.898C189.704 15 188.816 14.712 188.234 14.136C187.658 13.56 187.37 12.678 187.37 11.49V9.402C187.37 8.184 187.658 7.29 188.234 6.72C188.816 6.144 189.704 5.862 190.898 5.874H192.374C193.574 5.874 194.462 6.162 195.038 6.738C195.614 7.308 195.902 8.196 195.902 9.402V10.302C195.902 10.806 195.65 11.058 195.146 11.058H188.882ZM190.898 7.386C190.118 7.374 189.587 7.509 189.305 7.791C189.023 8.073 188.882 8.61 188.882 9.402V9.546H194.39V9.402C194.39 8.616 194.249 8.085 193.967 7.809C193.691 7.527 193.16 7.386 192.374 7.386H190.898ZM208.301 5.874C209.435 5.874 210.248 6.141 210.74 6.675C211.238 7.209 211.487 8.094 211.487 9.33V14.244C211.487 14.748 211.235 15 210.731 15C210.227 15 209.975 14.748 209.975 14.244V9.33C209.975 8.646 209.843 8.151 209.579 7.845C209.321 7.539 208.895 7.386 208.301 7.386H207.563C206.879 7.386 206.39 7.539 206.096 7.845C205.802 8.151 205.655 8.646 205.655 9.33V14.244C205.655 14.748 205.403 15 204.899 15C204.395 15 204.143 14.748 204.143 14.244V9.33C204.143 8.646 204.011 8.151 203.747 7.845C203.489 7.539 203.063 7.386 202.469 7.386H201.731C201.047 7.386 200.558 7.539 200.264 7.845C199.97 8.151 199.823 8.646 199.823 9.33V14.244C199.823 14.748 199.571 15 199.067 15C198.563 15 198.311 14.748 198.311 14.244V6.63C198.311 6.126 198.563 5.874 199.067 5.874C199.571 5.874 199.823 6.126 199.823 6.63V7.044C200.141 6.63 200.489 6.333 200.867 6.153C201.251 5.967 201.707 5.874 202.235 5.874H202.469C203.213 5.874 203.798 5.979 204.224 6.189C204.65 6.393 204.974 6.726 205.196 7.188C205.514 6.714 205.85 6.378 206.204 6.18C206.564 5.976 207.017 5.874 207.563 5.874H208.301ZM214.901 18.6C214.397 18.6 214.145 18.348 214.145 17.844V6.63C214.145 6.126 214.397 5.874 214.901 5.874C215.405 5.874 215.657 6.126 215.657 6.63V6.855C215.981 6.531 216.38 6.288 216.854 6.126C217.334 5.958 217.871 5.874 218.465 5.874H219.149C220.349 5.874 221.237 6.162 221.813 6.738C222.389 7.314 222.677 8.202 222.677 9.402V11.472C222.677 12.666 222.389 13.554 221.813 14.136C221.237 14.712 220.349 15 219.149 15H215.657V17.844C215.657 18.348 215.405 18.6 214.901 18.6ZM215.657 13.488H219.149C219.935 13.488 220.466 13.347 220.742 13.065C221.024 12.783 221.165 12.252 221.165 11.472V9.402C221.165 8.616 221.024 8.085 220.742 7.809C220.466 7.527 219.935 7.386 219.149 7.386H218.465C217.715 7.386 217.067 7.476 216.521 7.656C215.975 7.836 215.687 8.121 215.657 8.511V13.488ZM227.811 15C226.893 15 226.209 14.775 225.759 14.325C225.315 13.869 225.093 13.182 225.093 12.264V3.084C225.093 2.58 225.345 2.328 225.849 2.328C226.353 2.328 226.605 2.58 226.605 3.084V12.264C226.605 12.75 226.683 13.077 226.839 13.245C227.001 13.407 227.325 13.488 227.811 13.488C228.327 13.488 228.585 13.74 228.585 14.244C228.603 14.748 228.345 15 227.811 15ZM232.819 15C231.811 15 231.061 14.754 230.569 14.262C230.077 13.77 229.831 13.02 229.831 12.012C229.831 11.004 230.074 10.254 230.56 9.762C231.052 9.27 231.805 9.024 232.819 9.024H236.626C236.59 8.394 236.425 7.965 236.131 7.737C235.837 7.503 235.333 7.386 234.619 7.386H233.575C232.975 7.386 232.528 7.428 232.234 7.512C231.94 7.59 231.733 7.734 231.613 7.944C231.505 8.196 231.394 8.37 231.28 8.466C231.166 8.562 230.995 8.61 230.767 8.61C230.515 8.61 230.317 8.541 230.173 8.403C230.029 8.259 229.987 8.07 230.047 7.836C230.227 7.158 230.602 6.663 231.172 6.351C231.748 6.033 232.549 5.874 233.575 5.874H234.619C235.819 5.874 236.707 6.162 237.283 6.738C237.859 7.314 238.147 8.202 238.147 9.402V14.244C238.147 14.748 237.895 15 237.391 15C236.887 15 236.635 14.748 236.635 14.244V13.839C235.993 14.613 235.057 15 233.827 15H232.819ZM232.819 13.488H233.827C234.271 13.488 234.688 13.449 235.078 13.371C235.468 13.287 235.801 13.137 236.077 12.921C236.359 12.705 236.545 12.396 236.635 11.994V10.536H232.819C232.225 10.536 231.829 10.635 231.631 10.833C231.439 11.031 231.343 11.424 231.343 12.012C231.343 12.606 231.439 13.002 231.631 13.2C231.829 13.392 232.225 13.488 232.819 13.488ZM244.67 15C243.482 15 242.606 14.718 242.042 14.154C241.478 13.59 241.196 12.72 241.196 11.544V7.386H240.314C239.81 7.386 239.558 7.134 239.558 6.63C239.558 6.126 239.81 5.874 240.314 5.874H241.196V4.56C241.196 4.056 241.448 3.804 241.952 3.804C242.456 3.804 242.708 4.056 242.708 4.56V5.874H244.778C245.282 5.874 245.534 6.126 245.534 6.63C245.534 7.134 245.282 7.386 244.778 7.386H242.708V11.544C242.708 12.306 242.846 12.822 243.122 13.092C243.398 13.356 243.914 13.488 244.67 13.488C244.904 13.488 245.087 13.548 245.219 13.668C245.357 13.788 245.426 13.98 245.426 14.244C245.426 14.748 245.174 15 244.67 15ZM247.818 11.058V11.49C247.818 12.264 247.959 12.792 248.241 13.074C248.523 13.35 249.054 13.488 249.834 13.488H251.31C251.922 13.488 252.375 13.431 252.669 13.317C252.963 13.203 253.158 13.002 253.254 12.714C253.32 12.486 253.41 12.312 253.524 12.192C253.644 12.072 253.824 12.012 254.064 12.012C254.316 12.012 254.508 12.078 254.64 12.21C254.772 12.342 254.814 12.534 254.766 12.786C254.634 13.53 254.28 14.085 253.704 14.451C253.128 14.817 252.33 15 251.31 15H249.834C248.64 15 247.752 14.712 247.17 14.136C246.594 13.56 246.306 12.678 246.306 11.49V9.402C246.306 8.184 246.594 7.29 247.17 6.72C247.752 6.144 248.64 5.862 249.834 5.874H251.31C252.51 5.874 253.398 6.162 253.974 6.738C254.55 7.308 254.838 8.196 254.838 9.402V10.302C254.838 10.806 254.586 11.058 254.082 11.058H247.818ZM249.834 7.386C249.054 7.374 248.523 7.509 248.241 7.791C247.959 8.073 247.818 8.61 247.818 9.402V9.546H253.326V9.402C253.326 8.616 253.185 8.085 252.903 7.809C252.627 7.527 252.096 7.386 251.31 7.386H249.834Z" fill="#333333"/>
<path d="M24.9692 5.63019L19.6724 4.37079L20.4132 0H40.6005L41.3413 4.37079L36.0815 5.63019V44.5973H45.9344L49.0088 37.4484L54.7134 38.2633L53.7872 50.1164H20.4132L19.6724 45.7455L24.9692 44.4862V5.63019Z" fill="#424242"/>
<path d="M7.05383 50.5987L7.29892 49.5517L0 38.3001L1.21148 36.0021L12.4534 39.7741L13.125 39.0823L13.9415 39.9871L11.6659 44.3036L10.6652 43.7483L11.0576 42.4217L8.83205 41.6532L6.74539 45.6114L8.20633 47.8303L9.02998 46.8502L9.84642 47.755L8.05455 51.154L7.05383 50.5987ZM5.83305 44.2439L7.45449 41.1681L2.93242 39.5992L2.85871 39.7391L5.83305 44.2439Z" fill="#DC2F3C"/>
<path d="M12.9345 30.4462C14.1729 30.0171 15.1169 29.8173 15.7662 29.847C16.4157 29.8766 17.0084 30.1906 17.5445 30.789C18.1904 31.5099 18.4257 32.3748 18.2504 33.3834C18.075 34.3822 17.5057 35.4358 16.5425 36.5443C16.0804 37.0762 15.5981 37.5317 15.0956 37.9108C14.6017 38.2898 14.1399 38.5723 13.71 38.7582L11.9315 36.92L12.8946 35.5128L14.5225 36.4634C14.7133 36.3434 14.9083 36.1987 15.1074 36.0293C15.3022 35.855 15.488 35.6659 15.6652 35.4622C15.8638 35.2335 16.0407 35.005 16.1958 34.7767C16.3466 34.5435 16.4777 34.3129 16.5892 34.0849C16.5362 33.9865 16.4679 33.8858 16.3843 33.7827C16.3007 33.6698 16.2171 33.5668 16.1337 33.4735C15.848 33.1548 15.4918 33.0019 15.0649 33.015C14.6424 33.0232 13.9139 33.1941 12.8795 33.5279C11.7236 33.9219 10.8362 34.1162 10.2175 34.1111C9.59872 34.096 9.03229 33.8016 8.51815 33.2277C7.92936 32.5705 7.72061 31.7598 7.89187 30.7956C8.06312 29.8215 8.62815 28.7827 9.58702 27.6792C9.9282 27.2865 10.3305 26.9082 10.794 26.5442C11.2617 26.1752 11.7538 25.8629 12.2704 25.6072L14.049 27.4602L13.0859 28.8674L11.412 27.895C11.2386 28.0148 11.0698 28.1544 10.9054 28.3136C10.741 28.463 10.594 28.6122 10.4644 28.7614C10.3003 28.9503 10.1407 29.1638 9.98566 29.402C9.83059 29.6303 9.70587 29.8486 9.61161 30.0567C9.66029 30.16 9.72211 30.2632 9.79696 30.3664C9.87181 30.4695 9.95096 30.5677 10.0345 30.6608C10.241 30.8913 10.525 30.9978 10.8865 30.9803C11.248 30.9627 11.9306 30.7847 12.9345 30.4462Z" fill="#DC2F3C"/>
<path d="M26.6386 25.6587L27.9713 25.1178L28.4491 26.2079L25.8769 28.3151L24.5642 27.337C24.4882 27.9657 24.2779 28.5814 23.9332 29.184C23.5903 29.7772 23.1322 30.2788 22.5593 30.6889C21.7666 31.2559 21.0397 31.509 20.3786 31.4481C19.7138 31.3816 19.1542 31.0014 18.6998 30.3072C18.0144 29.2604 17.9315 28.1669 18.4511 27.0266C18.976 25.8825 20.09 24.7012 21.7931 23.4827L21.2899 22.7142C20.8138 21.987 20.3407 21.5407 19.8707 21.3754C19.4025 21.2007 18.8952 21.3088 18.349 21.6996C18.124 21.8605 17.9216 22.0257 17.7414 22.195C17.5631 22.355 17.4124 22.5032 17.2894 22.6397L17.9544 24.7365L16.5508 25.6195L14.9114 23.1155C15.2801 22.6576 15.7212 22.1842 16.2348 21.6954C16.7536 21.2028 17.2809 20.7649 17.8164 20.3817C19.059 19.4928 20.1451 19.0918 21.0751 19.1789C22.0067 19.2566 22.8098 19.8106 23.4842 20.8408L26.6386 25.6587ZM22.5505 24.6397C22.015 25.0228 21.5431 25.4252 21.1349 25.8467C20.732 26.2644 20.449 26.6368 20.2857 26.964C20.3116 27.1477 20.369 27.3615 20.4578 27.6053C20.5431 27.8436 20.6651 28.084 20.8238 28.3264C21.0979 28.7451 21.392 29.008 21.7058 29.1151C22.0162 29.2167 22.3266 29.1564 22.6372 28.9342C22.9746 28.6927 23.2434 28.3467 23.4438 27.8959C23.6459 27.4358 23.7666 26.9895 23.8058 26.557L22.5505 24.6397Z" fill="#DC2F3C"/>
<path d="M28.3046 25.2945L29.5018 24.5102L26.4525 17.4241L24.9898 17.5914L24.7151 16.4543L27.7447 15.1399L28.901 16.3805C29.2575 15.6457 29.6691 15.0727 30.136 14.6613C30.6003 14.2439 31.1424 13.9243 31.7625 13.7024C32.8165 13.3253 33.7326 13.3012 34.5109 13.63C35.2892 13.9588 35.8957 14.6283 36.3304 15.6384L38.7277 21.2094L40.1903 21.042L40.465 22.1792L35.4801 23.9627L34.8334 22.9587L36.0306 22.1743L33.6918 16.7395C33.3925 16.0439 33.0631 15.5859 32.7035 15.3655C32.3475 15.1369 31.9371 15.1058 31.4721 15.2722C31.1435 15.3897 30.8134 15.6369 30.4819 16.0138C30.1566 16.3884 29.8621 16.8847 29.5986 17.5025L32.1989 23.5453L33.6616 23.3779L33.9363 24.5151L28.9514 26.2986L28.3046 25.2945Z" fill="#DC2F3C"/>
<path d="M44.0143 12.0393L44.5065 13.1549L41.9357 13.758L43.5317 19.8953C43.6694 20.4242 43.8613 20.8258 44.1077 21.0998C44.359 21.3668 44.7398 21.4717 45.2503 21.4144C45.4401 21.3931 45.6501 21.3335 45.8805 21.2355C46.1094 21.1312 46.325 21.0152 46.5276 20.8875L46.811 21.9773C46.509 22.2145 46.143 22.4129 45.7131 22.5726C45.2832 22.7324 44.8392 22.8379 44.3811 22.8893C43.3341 23.0067 42.5268 22.8677 41.9592 22.4722C41.3965 22.0696 40.99 21.3871 40.7398 20.4248L39.0891 14.0773L37.5272 13.9376L37.4277 12.778L38.7136 12.6337L38.7018 9.75244L40.8816 9.70471L41.5603 12.3145L44.0143 12.0393Z" fill="#DC2F3C"/>
<path d="M50.3628 18.0328L50.4379 18.6804C50.5593 19.727 50.9051 20.5486 51.4747 21.1454C52.0506 21.7361 52.8534 22.073 53.8839 22.156C54.3302 22.192 54.841 22.1683 55.4169 22.0851C55.9921 22.0019 56.484 21.8957 56.8917 21.7665L57.0238 22.9048C56.5725 23.1081 55.9795 23.2645 55.2443 23.3737C54.5091 23.483 53.7511 23.5061 52.9698 23.4432C51.4146 23.3178 50.1741 22.855 49.249 22.0547C48.3239 21.2544 47.7809 20.1608 47.6202 18.7741L47.5257 17.9597C47.3073 16.0759 47.6097 14.6454 48.4328 13.6684C49.2558 12.6914 50.5075 12.2707 52.1878 12.4061C53.6847 12.5266 54.7954 12.9693 55.5218 13.7342C56.2469 14.4925 56.7027 15.6794 56.8904 17.2951L57.0384 18.5707L50.3628 18.0328ZM50.3633 13.9989C50.3023 14.3699 50.2571 14.794 50.2279 15.2711C50.2053 15.7488 50.207 16.2123 50.233 16.6615L54.0236 16.967C53.8908 15.8222 53.667 15.0136 53.3522 14.5411C53.0368 14.0621 52.5639 13.7972 51.9336 13.7464C51.658 13.7242 51.383 13.7344 51.108 13.7771C50.84 13.8203 50.5915 13.8943 50.3633 13.9989Z" fill="#DC2F3C"/>
</svg>
